<svg width="150" height="33" viewBox="0 0 150 33" fill="none" xmlns="http://www.w3.org/2000/svg">
<path d="M11.1998 31.07L1.08984 1.49001C1.08984 1.32001 1.08984 1.27001 1.25984 1.27001H7.50984C7.61984 1.27001 7.72984 1.33001 7.78984 1.44001L15.0298 23.95C15.0298 24.17 15.1998 24.17 15.3098 23.95L22.5398 1.43001C22.5398 1.32001 22.7098 1.26001 22.8198 1.26001H29.0698C29.2398 1.26001 29.2898 1.37001 29.2398 1.48001L19.1198 31.06C19.1198 31.17 18.9498 31.23 18.8398 31.23H11.4298C11.3198 31.23 11.2098 31.23 11.1498 31.06H11.2098L11.1998 31.07Z" fill="white"/>
<path d="M27.9001 24.71C27.9001 20.73 30.8301 17.85 36.3601 17.85H42.6101C42.7201 17.85 42.8301 17.74 42.8301 17.63V17.3C42.8301 15.14 41.4501 13.87 38.7401 13.87C36.0301 13.87 35.2601 14.7 34.8701 16.14C34.8701 16.25 34.7601 16.31 34.6501 16.31H28.9501C28.8401 16.31 28.7301 16.2 28.7801 16.09C29.4401 11.83 32.8701 9.12 38.9001 9.12C44.9301 9.12 48.9601 12.38 48.9601 17.41V25.59C48.9601 26.14 49.2401 26.42 49.7901 26.42H50.6201C50.7301 26.42 50.8401 26.53 50.8401 26.64V31.01C50.8401 31.12 50.7301 31.23 50.6201 31.23H47.4701C45.8701 31.23 44.7101 30.79 44.1001 29.74C44.1001 29.63 43.9301 29.57 43.8201 29.74C42.1601 31.23 39.5101 31.68 37.1801 31.68C31.4301 31.68 28.0001 29.03 28.0001 24.71H27.8901H27.9001ZM42.8901 22.67V22.28C42.8901 22.17 42.7801 22.06 42.6701 22.06H37.1401C34.9801 22.06 33.9901 22.89 33.9901 24.38C33.9901 25.87 35.2601 27.03 37.9201 27.03C40.5801 27.03 42.9001 25.81 42.9001 22.66L42.8901 22.67Z" fill="white"/>
<path d="M53.0601 31.02V1.48999C53.0601 1.37999 53.1701 1.26999 53.2801 1.26999H58.9801C59.0901 1.26999 59.2001 1.37999 59.2001 1.48999V31.02C59.2001 31.13 59.0901 31.24 58.9801 31.24H53.2801C53.1701 31.24 53.0601 31.13 53.0601 31.02Z" fill="white"/>
<path d="M83.4798 9.84001V31.07C83.4798 31.18 83.3698 31.29 83.2598 31.29H78.4998C78.3898 31.29 78.3298 31.29 78.2798 31.12L77.7298 29.85C77.6698 29.74 77.5598 29.68 77.4498 29.74C75.6298 31.18 73.5798 31.73 71.3098 31.73C65.8398 31.73 62.5698 28.91 62.5698 23.49V9.89001C62.5698 9.78001 62.6798 9.67001 62.7898 9.67001H68.4298C68.5398 9.67001 68.6498 9.78001 68.6498 9.89001V22.33C68.6498 25.15 70.1998 26.7 73.0198 26.7C75.8398 26.7 77.3898 25.04 77.3898 22.17V9.89001C77.3898 9.78001 77.4998 9.67001 77.6098 9.67001H83.3098C83.4198 9.67001 83.5298 9.78001 83.5298 9.89001L83.4698 9.83001L83.4798 9.84001Z" fill="white"/>
<path d="M86.6301 31.02V9.83999C86.6301 9.72999 86.7401 9.61999 86.8501 9.61999H91.6101C91.7201 9.61999 91.7801 9.61999 91.8301 9.78999L92.3801 11.06C92.4401 11.17 92.5501 11.23 92.6601 11.17C94.4801 9.72999 96.5301 9.17999 98.8001 9.17999C104.27 9.17999 107.54 12 107.54 17.42V31.02C107.54 31.13 107.43 31.24 107.32 31.24H101.68C101.57 31.24 101.46 31.13 101.46 31.02V18.58C101.46 15.76 99.9101 14.21 97.0901 14.21C94.2701 14.21 92.7201 15.87 92.7201 18.74V31.02C92.7201 31.13 92.6101 31.24 92.5001 31.24H86.8001C86.6901 31.24 86.5801 31.13 86.5801 31.02H86.6401H86.6301Z" fill="white"/>
<path d="M145.24 14.15H149.17C149.28 14.15 149.39 14.04 149.39 13.93V9.73001H134.57V13.99C134.57 14.1 134.68 14.21 134.79 14.21H138.72C138.83 14.21 138.94 14.32 138.94 14.43V25.71C138.94 29.41 140.71 31.13 144.36 31.13H149.17C149.28 31.13 149.39 31.02 149.39 30.91V26.15C149.39 26.04 149.28 25.93 149.17 25.93H146.96C145.41 25.93 145.02 25.54 145.02 23.99V14.37C145.02 14.26 145.13 14.15 145.24 14.15Z" fill="white"/>
<path d="M133.3 11.11L126.61 19.9L133.3 29.41V31.24H128.05L123.29 24.27L121.3 26.87L117.98 31.24H116.1L120.36 25.49L122.3 22.83L123.62 21.06L124.4 19.96L123.95 19.29L122.3 16.91L121.08 15.15L117.26 9.56H119.31L122.24 13.76L123.4 15.42L127.66 9.56H133.3V11.11Z" fill="white"/>
<path d="M123.12 20.4L121.8 22.17L119.86 24.77L115.05 31.24H109.91V29.3L116.88 20.51L109.91 10.5V9.56H115.55L120.25 16.25L121.47 18.08L123.12 20.4Z" fill="#A1268A"/>
<path d="M145.19 3.48001V9.45001L139.27 3.48001H145.19Z" fill="#A1268A"/>
</svg>
